<mxfile host="app.diagrams.net" modified="2023-08-21T09:53:29.954Z" agent="Mozilla/5.0 (Windows NT 10.0; Win64; x64) AppleWebKit/537.36 (KHTML, like Gecko) Chrome/115.0.0.0 Safari/537.36 Edg/115.0.1901.203" version="21.6.8" etag="gop3WS4LUrdTnVST1lPv" type="github">
  <diagram name="Page-1" id="JhfrGtYHU1fJsOcF3TSG">
    <mxGraphModel>
      <root>
        <mxCell id="0" />
        <mxCell id="1" parent="0" />
      </root>
    </mxGraphModel>
  </diagram>
</mxfile>
